HIERARCHY
ROOT Hips
{
	OFFSET -0.179506 -22.333345 2.821913
	CHANNELS 6 Xposition Yposition Zposition Zrotation Yrotation Xrotation 
	JOINT LeftUpLeg
	{
		OFFSET 6.951974 -9.140623 -0.681533
		CHANNELS 3 Zrotation Yrotation Xrotation
		JOINT LeftLeg
		{
			OFFSET 3.427654 -37.519855 -0.449580
			CHANNELS 3 Zrotation Yrotation Xrotation
			JOINT LeftFoot
			{
				OFFSET -1.359570 -39.796059 -4.369333
				CHANNELS 3 Zrotation Yrotation Xrotation
				JOINT LeftToe
				{
					OFFSET 2.635814 -5.579078 11.928840
					CHANNELS 3 Zrotation Yrotation Xrotation
					End Site
					{
						OFFSET 0.000000 0.000000 0.000000
					}
				}
			}
		}
	}
	JOINT RightUpLeg
	{
		OFFSET -6.767048 -9.052170 -0.431982
		CHANNELS 3 Zrotation Yrotation Xrotation
		JOINT RightLeg
		{
			OFFSET -3.829005 -38.256897 -0.885003
			CHANNELS 3 Zrotation Yrotation Xrotation
			JOINT RightFoot
			{
				OFFSET 1.577377 -39.841461 -4.231180
				CHANNELS 3 Zrotation Yrotation Xrotation
				JOINT RightToe
				{
					OFFSET -2.537174 -4.814398 12.334795
					CHANNELS 3 Zrotation Yrotation Xrotation
					End Site
					{
						OFFSET 0.000000 0.000000 0.000000
					}
				}
			}
		}
	}
	JOINT Spine
	{
		OFFSET -0.253288 10.896323 -2.669631
		CHANNELS 3 Zrotation Yrotation Xrotation
		JOINT Spine1
		{
			OFFSET 0.548704 13.518043 0.109247
			CHANNELS 3 Zrotation Yrotation Xrotation
			JOINT Spine2
			{
				OFFSET 0.145701 5.292222 2.542457
				CHANNELS 3 Zrotation Yrotation Xrotation
				JOINT Neck
				{
					OFFSET -0.277840 21.387037 -4.285703
					CHANNELS 3 Zrotation Yrotation Xrotation
					JOINT Head
					{
						OFFSET 0.515184 6.496960 5.134897
						CHANNELS 3 Zrotation Yrotation Xrotation
						End Site
						{
							OFFSET 0.000000 0.000000 0.000000
						}
					}
				}
				JOINT LeftShoulder
				{
					OFFSET 7.884473 12.174932 -3.408961
					CHANNELS 3 Zrotation Yrotation Xrotation
					JOINT LeftArm
					{
						OFFSET 9.097692 3.046888 -0.886815
						CHANNELS 3 Zrotation Yrotation Xrotation
						JOINT LeftForeArm
						{
							OFFSET 25.961220 -1.277207 -2.745643
							CHANNELS 3 Zrotation Yrotation Xrotation
							JOINT LeftHand
							{
								OFFSET 24.923361 0.898606 -0.117091
								CHANNELS 3 Zrotation Yrotation Xrotation
								End Site
								{
									OFFSET 0.000000 0.000000 0.000000
								}
							}
						}
					}
				}
				JOINT RightShoulder
				{
					OFFSET -8.175920 11.883285 -3.861528
					CHANNELS 3 Zrotation Yrotation Xrotation
					JOINT RightArm
					{
						OFFSET -9.601238 3.255117 -0.914307
						CHANNELS 3 Zrotation Yrotation Xrotation
						JOINT RightForeArm
						{
							OFFSET -25.374195 -1.332924 -2.140099
							CHANNELS 3 Zrotation Yrotation Xrotation
							JOINT RightHand
							{
								OFFSET -25.529810 0.777228 -0.555919
								CHANNELS 3 Zrotation Yrotation Xrotation
								End Site
								{
									OFFSET 0.000000 0.000000 0.000000
								}
							}
						}
					}
				}
			}
		}
	}
}
MOTION
Frames: 16
Frame Time: 0.033333
-0.179506 59.040939 2.821913 115.078876 -54.376778 150.380214 2.247593 -2.396947 1.116435 -1.870211 -13.189132 14.302107 -6.803704 6.769472 16.390142 0.382886 -1.326855 -0.727957 -3.846690 -1.663056 -7.890338 0.766949 0.230558 27.687490 7.068425 -5.745665 23.005822 -0.118346 1.781000 -0.830590 -1.357654 -2.445901 18.056167 -2.858613 -1.010875 -9.210177 2.213773 -2.847784 8.654784 0.695794 -7.708126 -0.844658 5.769020 -0.833889 -0.136086 -15.710014 5.079837 7.854685 -52.903628 6.625662 9.375659 -5.516697 -26.290284 8.518042 -3.348406 -12.303637 -13.844000 7.554450 -0.888230 -0.713318 66.857320 -8.013337 15.353222 -8.255455 37.884367 0.287950 3.768995 8.532737 -13.495806 
-0.099014 59.062149 2.950933 115.302959 -54.491995 150.046479 2.365421 -2.301781 1.234206 -1.962793 -13.246816 14.192182 -7.092897 6.755635 16.757571 0.355354 -1.294918 -0.717645 -3.811370 -1.749941 -7.693888 0.723133 0.230421 27.544328 7.151151 -5.849329 23.405316 -0.051900 1.694701 -0.788350 -1.288738 -2.489207 18.133615 -2.917061 -0.977667 -9.334645 2.228129 -2.893459 8.611142 0.665551 -7.691109 -0.713211 5.675753 -0.775482 -0.095261 -15.920181 5.089205 7.753258 -52.943360 6.443584 9.220001 -5.217236 -25.810358 8.211610 -3.604534 -12.247792 -13.614994 7.630498 -0.830476 -0.717885 66.804585 -7.867744 15.427666 -8.251409 37.295270 0.340257 3.901692 8.534996 -13.437357 
-0.121206 59.082420 2.982177 115.260345 -54.293867 149.975297 2.417336 -2.310668 1.165114 -2.088551 -13.108550 14.588698 -7.136349 6.872010 16.676610 0.355379 -1.316060 -0.728836 -3.838994 -1.812409 -7.750472 0.741498 0.101529 27.780408 7.289213 -5.770131 23.349731 -0.144503 1.687877 -0.801695 -1.279816 -2.525799 18.212005 -2.969306 -0.979410 -9.348957 2.230334 -2.887092 8.590708 0.667042 -7.624138 -0.709121 5.659246 -0.705574 -0.174991 -15.954104 5.179334 7.832141 -53.045652 6.417726 9.165332 -5.050710 -25.723251 8.068219 -3.584511 -12.242435 -13.638652 7.527467 -0.795536 -0.721582 66.903691 -7.764732 15.432789 -8.254347 37.220908 0.720748 4.042214 8.452329 -13.247409 
-0.092099 59.102776 3.079365 115.322422 -54.118542 149.863170 2.507788 -2.229587 1.051848 -2.144624 -12.912014 14.888370 -7.238950 6.830459 16.804522 0.365697 -1.358509 -0.755273 -3.782927 -1.889818 -7.724151 0.668130 -0.000034 27.700765 7.412046 -5.713669 23.569323 -0.328800 1.728219 -0.848708 -1.289359 -2.538154 18.285271 -2.965157 -0.982013 -9.328616 2.228142 -2.929361 8.464274 0.596163 -7.620505 -0.603151 5.598993 -0.563165 -0.315383 -16.120185 5.191060 7.904339 -53.107979 6.356026 9.062355 -4.881510 -25.460825 7.788884 -3.556218 -12.108784 -13.500573 7.535346 -0.666582 -0.761576 66.896126 -7.573429 15.471789 -8.249370 36.777328 0.821267 4.143895 8.399850 -13.071242 
-0.111895 59.122826 3.082234 115.034438 -53.527026 150.216316 2.588517 -2.146981 0.887148 -2.237833 -12.779929 15.138577 -7.107196 6.995428 16.760431 0.389109 -1.400883 -0.787277 -3.777700 -1.879450 -7.932964 0.743334 -0.051801 27.687126 7.587920 -5.569868 23.354702 -0.440698 1.828808 -0.876144 -1.279052 -2.559199 18.341900 -2.952067 -1.002583 -9.341746 2.186585 -2.899759 8.408066 0.499695 -7.591572 -0.601835 5.580803 -0.456965 -0.372558 -16.277073 5.290205 8.006866 -53.114436 6.392499 9.035239 -4.902731 -25.193048 7.583260 -3.376862 -12.037180 -13.477125 7.594408 -0.559743 -0.919101 66.836228 -7.411515 15.443621 -8.244704 36.658372 0.860619 4.213240 8.361710 -12.855260 
-0.069611 59.144356 3.058900 114.967259 -53.445837 150.330966 2.625711 -2.088562 0.772550 -2.252444 -12.630621 15.254201 -7.229178 6.913245 16.890502 0.394001 -1.412728 -0.814393 -3.763349 -1.926964 -7.956394 0.668578 -0.161069 27.565549 7.603356 -5.565838 23.434595 -0.544123 1.861544 -0.919846 -1.325093 -2.541856 18.401359 -2.884019 -1.031307 -9.201803 2.175078 -2.910744 8.224314 0.425419 -7.561955 -0.544051 5.503336 -0.302972 -0.500916 -16.472108 5.256765 8.025430 -53.005792 6.328919 8.950255 -4.853031 -24.883720 7.281232 -3.520877 -11.999366 -13.107283 7.745885 -0.496394 -0.934993 66.765277 -7.338932 15.405109 -8.310418 36.433012 0.774712 4.272800 8.330065 -12.650096 
-0.083651 59.166946 3.047960 114.788689 -53.133886 150.532259 2.649326 -2.099474 0.569460 -2.333246 -12.426043 15.635238 -7.202320 6.986484 16.844274 0.408477 -1.427428 -0.786039 -3.736792 -1.846562 -8.108799 0.707584 -0.076063 27.649854 7.622875 -5.545712 23.281673 -0.647578 1.887621 -0.908710 -1.357779 -2.544645 18.473197 -2.872745 -1.088393 -9.176583 2.143833 -2.906401 8.196649 0.360788 -7.493224 -0.619784 5.535795 -0.262072 -0.637865 -16.598580 5.217493 8.081869 -53.006570 6.279210 8.865530 -4.759976 -24.540988 6.984463 -3.478243 -11.990363 -13.071865 7.805824 -0.361313 -1.016856 66.762798 -7.261512 15.336569 -8.367667 36.370141 0.923055 4.382027 8.336934 -12.454660 
-0.073176 59.189407 2.909322 114.450292 -52.804892 150.929634 2.709484 -2.054380 0.288799 -2.510098 -12.192675 16.095606 -7.211186 6.986818 16.879882 0.393796 -1.434806 -0.803969 -3.764015 -1.883848 -8.402473 0.659156 -0.295329 27.907894 7.597906 -5.476087 23.052929 -0.716153 1.897459 -0.948627 -1.392120 -2.566982 18.558262 -2.836064 -1.101636 -9.219155 2.072263 -2.904038 8.128241 0.279107 -7.420576 -0.763182 5.469202 -0.198852 -0.682737 -16.762963 5.323667 8.155908 -52.816206 6.233952 8.825005 -4.677451 -24.257499 6.819895 -3.376530 -11.881597 -12.856548 8.082611 -0.380200 -1.090563 66.607607 -7.296520 15.327930 -8.433604 36.520865 0.921503 4.356411 8.338592 -12.327734 
-0.056504 59.212456 2.842818 114.006170 -52.228996 151.384052 2.751479 -1.974796 0.100317 -2.682300 -12.080336 16.445657 -7.207718 7.122309 16.992374 0.423052 -1.472723 -0.844647 -3.756600 -1.829039 -8.681431 0.612516 -0.363468 28.061169 7.666789 -5.446275 22.876214 -0.908780 1.974922 -1.013630 -1.453335 -2.588521 18.690815 -2.783647 -1.110438 -9.168650 2.039329 -2.898989 7.960259 0.076685 -7.329661 -0.745514 5.451227 0.029647 -0.752612 -17.112085 5.274607 8.231705 -52.520824 6.179669 8.649861 -4.692689 -23.840301 6.303020 -3.302629 -11.791298 -12.531623 8.370857 -0.197346 -1.151330 66.339564 -7.196918 15.266012 -8.456175 36.567000 0.748645 4.450383 8.286340 -11.984034 
-0.089964 59.237007 2.646753 113.714265 -51.604514 151.887374 2.893658 -1.988361 -0.218597 -2.804903 -12.021190 16.856327 -7.004373 7.237196 16.804541 0.477737 -1.504266 -0.870988 -3.704511 -1.757579 -9.155951 0.728416 -0.536161 28.392835 7.634135 -5.218881 22.447570 -0.983756 1.983369 -1.065794 -1.513728 -2.616188 18.763104 -2.666495 -1.130057 -8.927478 1.959894 -2.902169 7.670248 -0.110357 -7.144419 -0.688340 5.307157 0.126342 -0.946298 -17.310551 5.189554 8.301728 -52.235590 6.070090 8.500150 -4.525632 -23.400640 5.824347 -3.265504 -11.692696 -12.218803 8.671600 -0.042048 -1.280014 66.215031 -7.103715 15.231490 -8.581949 36.466070 0.527140 4.537522 8.197339 -11.608698 
-0.069850 59.263954 2.339563 113.284966 -51.284421 152.385426 2.981698 -1.963971 -0.469854 -3.039727 -11.952119 17.314364 -7.039378 7.153552 16.859444 0.462648 -1.470810 -0.903455 -3.702982 -1.794268 -9.337222 0.685728 -0.606814 28.523623 7.505418 -5.218385 22.087518 -0.981978 1.968161 -1.023287 -1.591808 -2.608951 18.914103 -2.621520 -1.161820 -8.915082 1.872201 -2.911618 7.473309 -0.128749 -7.084312 -0.701762 5.236103 0.111496 -1.094999 -17.348460 5.135908 8.204866 -51.678917 5.798446 8.402683 -4.408403 -23.082529 5.689809 -3.314370 -11.662632 -12.016215 8.991172 -0.051273 -1.257750 66.120521 -7.029644 15.179082 -8.425689 36.319787 0.655811 4.528263 8.205067 -11.662952 
-0.121208 59.292580 2.193835 112.899602 -50.664059 152.903975 3.070044 -1.881295 -0.518550 -3.142385 -11.988845 17.287049 -6.964175 7.323437 16.638214 0.487884 -1.496371 -0.919444 -3.655971 -1.756890 -9.670419 0.615939 -0.794108 28.666260 7.490081 -5.237807 21.595971 -1.011197 1.986535 -1.039273 -1.727620 -2.674881 19.067618 -2.533187 -1.186127 -8.892236 1.804598 -2.868711 7.385198 -0.332010 -6.829036 -0.794658 5.152134 0.344170 -1.213208 -17.406425 4.815656 7.969946 -51.051241 5.454515 8.065751 -4.070999 -23.012223 5.097705 -3.333994 -11.502465 -11.803622 9.348630 0.003310 -1.373896 65.827758 -6.929458 15.121263 -8.448243 36.477558 0.333065 4.474092 8.143564 -11.544581 
-0.309174 59.322968 2.084855 112.487912 -49.209925 153.604621 3.317725 -1.808890 -0.531501 -3.199886 -12.039434 17.110308 -6.406192 7.877082 16.101486 0.498175 -1.530953 -0.964932 -3.512071 -1.685521 -10.344724 0.729397 -1.117157 28.968381 7.600230 -5.011694 20.773675 -1.034238 2.078127 -1.067276 -1.844839 -2.745059 19.163671 -2.481830 -1.199081 -8.906516 1.729499 -2.770346 7.206363 -0.550104 -6.494649 -0.815193 5.059764 0.546429 -1.505198 -17.332224 4.519774 7.662646 -50.000947 5.063757 7.647955 -3.559149 -23.473475 4.323044 -3.237615 -11.436731 -11.291110 9.728989 0.118715 -1.587828 65.440102 -6.839807 14.932055 -8.506626 36.994054 0.082823 4.239769 8.056774 -11.173601 
-0.417432 59.354523 1.591880 111.883311 -48.244123 154.417267 3.483025 -1.764542 -1.093254 -3.441982 -11.723386 18.175055 -6.110832 7.816601 15.735754 0.526213 -1.555302 -1.078499 -3.476928 -1.726194 -10.888017 0.730517 -1.502137 29.450318 7.345503 -4.964930 20.124159 -1.303380 2.242390 -1.144309 -1.999803 -2.723360 19.336057 -2.310822 -1.259683 -8.798659 1.585710 -2.707073 6.998580 -0.798449 -6.379740 -0.887506 4.971495 0.697221 -1.942296 -16.867899 3.900817 7.387449 -48.944292 4.477402 7.263609 -3.064460 -23.776028 3.604990 -2.823179 -11.184682 -11.345656 10.238353 0.180695 -1.539251 65.027443 -6.796629 14.731054 -8.196378 37.434663 0.030523 4.091978 7.834177 -10.626976 
-0.618262 59.398224 1.545926 111.900504 -47.656406 154.684290 3.684233 -1.700895 -1.465534 -3.547117 -11.652068 18.619521 -5.860816 7.943323 15.046389 0.422503 -1.516309 -1.024512 -3.333338 -1.787009 -11.070466 0.662933 -1.750689 29.295238 7.082420 -5.176012 19.706407 -1.237226 2.213813 -1.151405 -2.067889 -2.825752 19.406940 -2.225541 -1.294171 -8.871449 1.532258 -2.717688 6.951634 -0.985397 -5.984655 -0.969282 4.939870 1.150412 -2.127628 -16.519503 3.482950 7.006560 -47.621964 3.919889 6.698260 -2.691551 -23.966741 2.870518 -2.769151 -11.162176 -10.810454 10.582254 0.048514 -1.554867 64.394702 -6.818142 14.486560 -7.948383 38.127015 -0.150941 4.047983 7.839571 -10.109135 
-0.760150 59.449860 1.494763 111.827273 -46.846123 155.102931 3.863137 -1.639031 -1.551583 -3.485092 -11.684026 18.379919 -5.462775 8.177192 14.735145 0.373766 -1.487353 -1.021634 -3.173952 -1.889651 -11.239081 0.567060 -2.011686 28.935747 6.684535 -5.495830 19.639056 -1.072814 2.160079 -1.115747 -2.181720 -2.829494 19.468880 -2.141917 -1.288411 -8.966025 1.505915 -2.690095 6.922348 -1.140445 -5.785681 -1.111154 4.927837 1.207508 -2.410016 -16.013128 3.238102 6.697777 -46.185447 3.596665 6.283293 -2.569250 -24.492630 2.409894 -2.583697 -11.165335 -10.771351 10.971600 0.000884 -1.667470 63.707763 -6.845535 14.170114 -7.637798 38.512623 -0.309920 3.666049 7.819170 -9.745912 
